PathFileType	4	(X/Y/Z)	T1_P2_NoVision_Movement_3_0-732.trc
DataRate	CameraRate	NumFrames	NumMarkers	Units	OrigDataRate	OrigDataStartFrame	OrigNumFrames
60	60	7	27	m	60	183	732
Frame#	Time	RHip			RKnee			RAnkle			RBigToe			RSmallToe			RHeel			LHip			LKnee			LAnkle			LBigToe			LSmallToe			LHeel			Neck			Head			Nose			RShoulder			RElbow			RWrist			RThumb			RIndex			RPinky			LShoulder			LElbow			LWrist			LThumb			LIndex			LPinky		
		X1	Y1	Z1	X2	Y2	Z2	X3	Y3	Z3	X4	Y4	Z4	X5	Y5	Z5	X6	Y6	Z6	X7	Y7	Z7	X8	Y8	Z8	X9	Y9	Z9	X10	Y10	Z10	X11	Y11	Z11	X12	Y12	Z12	X13	Y13	Z13	X14	Y14	Z14	X15	Y15	Z15	X16	Y16	Z16	X17	Y17	Z17	X18	Y18	Z18	X19	Y19	Z19	X20	Y20	Z20	X21	Y21	Z21	X22	Y22	Z22	X23	Y23	Z23	X24	Y24	Z24	X25	Y25	Z25	X26	Y26	Z26	X27	Y27	Z27
184	3.066666666666667	470.0367549401525	3607.883891856569	537.5656726196061	860.2382741056931	3626.267999239204	534.5047597246295	1250.466416701813	3702.4747686127776	614.4539713838171	1339.7967018058107	3633.62633056726	607.6307012357918	1321.5926045955982	3644.3133469896134	550.9890440847896	1281.38636132909	3699.6889381717365	629.3766025541008	472.5931112044245	3508.350195836563	734.5364442671913	892.6737539204242	3550.461389156879	749.3017874820838	1241.2331890380765	3593.366368488294	724.4452993016906	1324.395118113187	3546.5611081922316	671.2877808228551	1278.9871032523756	3464.9037300642535	704.5983241451935	1282.627285347175	3616.3198977927195	718.5004072639397	-117.73408410177436	3514.6983319631922	634.9397429774224	-372.39135392173904	3481.6483433067383	622.6328634381821	-233.19591330224029	3398.0543745950276	568.1134536837028	-31.400779461538562	3627.6189666914215	531.8554173165421	211.4295791998648	3702.411679941614	456.20086856748395	444.3599650049871	3633.1430211964985	397.1139526137197	567.0297516938449	3546.382878499255	392.78267819025257	599.9017240091284	3578.799444565911	385.8749128451456	588.6843148783611	3648.4983966389696	389.1108980716458	-14.873469612095283	3487.5799533295326	807.311765173659	244.1972088083261	3431.95692573181	833.2180750416462	492.7341755658759	3414.1466035868957	824.6291053261328	605.2982476577342	3431.1292613539486	817.1902013510154	610.284469956822	3398.1567039069987	811.6695554794612	594.0446301064202	3328.2626739614225	812.3728580844642
185	3.0833333333333335	470.1296803129619	3606.0738810778034	537.4886140986487	870.5197337285507	3661.4821565761804	553.2197254670427	1250.7342763400522	3702.731721239434	614.7083502644596	1332.0330000321314	3617.8079151160377	594.3569200202825	1314.946633695822	3639.9301082652883	549.8909405894152	1279.0373688293573	3704.8224765363366	632.1067740878377	467.8175699348121	3505.0337035461125	733.338044509526	892.3649025319834	3550.249496071853	749.1197585534353	1246.881410154868	3594.4090499061967	725.7522350448361	1334.2232838186394	3557.5234174047937	682.659017281056	1279.0015867456138	3464.74795025724	704.5409837564969	1282.525827091886	3616.1185055801952	718.6112379027669	-117.78023046592884	3514.681221029807	634.9708723205234	-376.6515836103814	3478.0534086491575	621.0585360903298	-232.61353128036995	3378.877571670743	562.9117898008489	-31.443295352315435	3627.5106491602583	531.8927775924	207.0182487854892	3706.8871777831255	458.40053549204816	444.23814177967165	3633.272176314078	397.1276529143991	571.5065541983403	3549.958826048026	393.75438702575343	594.6223182189515	3575.9127536132205	384.52185876448493	588.8003813368618	3649.408757788674	389.3343176488047	-14.866120399940508	3487.4627544020987	807.3235958921986	244.15893259902933	3431.928503463095	833.151502613768	492.7952219175907	3414.103927413201	824.6123214826144	605.3207006749807	3430.7962819505874	816.8083393534289	610.7317597041039	3400.5823640950452	807.5136276695733	597.8052753384546	3341.115047154179	825.093218630465
186	3.1	464.9606473456567	3601.8135950623628	536.1340639709382	869.5013769534144	3641.981505412666	548.8717251361961	1255.6717990738946	3724.543257924192	630.8334815256768	1332.1823538637364	3612.7829468773725	602.463642900453	1315.0907933407323	3640.1502163288483	550.2214613771724	1278.9466009653645	3706.908165849298	627.834602865421	467.8640702947898	3505.216323658547	733.3859523679978	891.8488925054811	3549.5885829429717	748.794232208119	1250.2891612532883	3595.5874907241378	719.1514207700197	1326.3490932820948	3541.6854457978075	668.697937171699	1281.1505518704428	3459.78887934281	701.71761393841	1282.7177935161594	3616.4693685531543	718.5563229733444	-117.68196282114373	3514.9316346033315	635.183525987215	-372.4388991144111	3481.510921576171	622.827825172128	-232.6209624684404	3378.4258280261947	562.8034017033686	-40.3524407051092	3630.392138778625	533.7040687453483	201.98246467420387	3702.695369540847	457.0267270552055	444.22676158096317	3633.5878789134426	397.1757459528409	574.7133673258347	3567.980855755127	397.56928131004787	604.1720449408815	3583.317458903973	387.09069590816995	588.4318013253347	3649.3583489844887	388.93685191852313	-14.886887467467131	3487.4246006575468	807.3755419376323	248.58256698477652	3433.4571932322847	834.1864619327689	492.87201795332925	3414.1455410406725	824.6939159328041	604.9546176549121	3431.13221691582	811.7700240424228	606.8158376565738	3380.8280467866525	800.726070560674	594.2550329250035	3328.4142449171964	812.4438243041807
187	3.1166666666666667	460.85431424463746	3607.026250905135	538.6444506498669	864.1068529138247	3639.3477598562667	547.0724369766626	1247.7367731761024	3708.39130666589	617.3089148937576	1337.4370289008195	3638.6642847739286	610.4567303531611	1314.8289818837463	3640.1852627790495	550.1057868452563	1276.3189375013728	3712.2375438787003	630.6423728978081	467.91130697491843	3505.3118090941603	733.4159232111381	891.5148666327616	3549.215409159758	748.7220912521943	1243.4804136041776	3588.4149357028573	721.7598867750947	1324.2348269934487	3546.35363857857	671.2792331831031	1281.0408481387656	3459.684712414075	701.7526942026736	1282.4726174413183	3616.0313927944976	718.4033040281752	-117.6408828999428	3514.889424300474	635.190566521224	-372.446762232297	3481.5528528040095	622.9049412948655	-232.50639175379416	3392.7338599300397	574.9653673109813	-40.36059822203179	3630.013194481471	533.5281822666556	201.99353658212172	3702.5775756711473	456.9075596801462	444.1078536759053	3633.4972674483984	397.1402138838185	574.8676733621156	3567.8246710821018	397.5321771951479	604.2650502978358	3583.0934570722156	387.09679103675956	593.0208563416456	3651.9624331717187	390.18419069077504	-15.281378677566376	3466.4577687803144	800.7306532163008	244.23062942458574	3432.0962905006454	833.3164649376871	492.9818941702596	3414.0201628273962	824.7682118689769	605.3281284857335	3430.097131111073	816.6711461456538	606.9447877564166	3380.694939492559	800.8119625762741	594.3333539446699	3328.3258542637996	812.4242418576267
188	3.1333333333333333	464.9899142895715	3601.6822316626162	535.8983634532946	864.5593894712433	3639.516738825233	547.216031269102	1250.508803124794	3702.6148986990356	614.5838212619223	1339.606794207403	3633.3256033556704	607.5403827374698	1309.5509489275187	3637.7053420176762	548.0796134470775	1278.8902794163323	3704.951956700771	632.0823306491202	472.76040682145157	3506.98541568713	734.4529914132503	891.7475201757221	3549.5951792353976	748.7154825024016	1243.509833986496	3588.7086578525104	721.9484005489767	1326.350511811755	3541.543934391688	668.649666299246	1281.0933712142796	3459.5443018940264	701.7025650599554	1282.4439320296922	3616.206910492165	718.732362869344	-117.68308801997384	3515.1652570262127	635.3995096602184	-372.4480073944058	3481.698551787318	623.018780697912	-232.00865490286665	3373.6257756561904	569.7265202442458	-40.53294603628169	3630.4022772750563	533.8858496953949	206.0967932739832	3697.788831601902	454.66794328298016	444.02316150880023	3633.7067378050983	397.17779624520784	574.8325516166007	3567.7326622656224	397.5275302954578	604.2359057613751	3582.784463481969	386.9556110783704	593.1149808271775	3652.099881811314	390.33599955050863	-15.269375594323424	3466.5354629467124	800.8350330415883	248.66933786704482	3433.496743963878	834.2333621878188	493.1010164008185	3413.940824241629	824.7070878197233	605.3158111386276	3429.8363001635344	816.3933008111858	607.0039895751489	3380.334650753891	800.6028746421881	594.5728186141209	3328.3374089873355	812.4556165613584
189	3.15	460.6341170062428	3606.9876091428446	538.3765093252396	869.6843937821174	3660.798241360916	552.7053948970855	1248.0329323625342	3708.0649041802644	617.3028264007548	1333.2106907473888	3629.8505401220064	606.9984219931375	1315.0025811299788	3640.0473753761044	550.0783109974989	1278.9180301053036	3705.0573273836253	632.1176543034221	467.9022868199397	3505.7271871634143	733.4714886991076	888.9716660372306	3555.053868858842	751.9082887284025	1249.350461532177	3589.8059497904865	723.1830375212363	1334.0793019139992	3557.147118399511	682.4885163311676	1281.1167623881458	3459.6884200861477	701.8412758575854	1282.6527760554663	3615.660968664794	718.1737489341855	-117.75329293650648	3514.9899998905703	635.3606642394288	-377.11897264088196	3484.986128779502	624.9102382130209	-231.9862230323149	3373.6202727861496	569.781061054789	-45.28313337819509	3626.4187944301307	532.3517811887857	197.0488715400961	3700.929240448407	456.19174678900873	440.23267818869726	3638.4925742251016	399.2906661010155	571.5314367943884	3550.3041453703772	393.8770769211418	604.194460959969	3582.795866414188	386.9707770048322	588.4920775563183	3649.618890701541	389.06809765133994	-14.317037076173808	3481.3402471357726	815.0583723682507	248.80979999007405	3433.5667006242975	834.2948475088307	493.138198449331	3413.7923664659634	824.6683339205676	605.2828004797661	3428.682664048051	815.9983312515805	603.2101103552359	3360.4734805256126	793.8108978823866	601.8328216580144	3337.1188022392826	822.6031800778426
190	3.1666666666666665	452.12525869332256	3588.5889869041953	524.4763685163881	852.9869603454038	3620.0212878450156	532.4393540111937	1255.227971180964	3724.666950901464	630.6511260135844	1331.7175070277538	3612.4249677020207	602.2126793764619	1307.3185449803498	3619.606877142907	544.7270742979312	1278.8286106223547	3707.1096464725765	627.9387542256785	467.7340133684902	3505.2576876027138	733.3460860968175	886.871021274852	3529.320342899579	742.87663115519	1255.7794054127096	3593.6581364661192	723.9636268042439	1324.1675373880498	3541.1899186657547	679.3088895097147	1273.9636319418323	3440.418296384821	696.186816755254	1288.4507358870128	3617.07801937088	719.4563568050401	-117.7035527610584	3514.789326051203	635.3330510606177	-377.0923064145709	3485.0569486752997	624.9955580717452	-232.5561889487713	3393.197720569796	575.4309223455258	-45.5348757327843	3605.9201442449503	527.4853537267962	201.20079100083936	3696.3092681594903	454.0209631360433	440.16221215547307	3638.2497624928205	399.22822864492673	571.4456778958354	3550.2980353158773	393.8832924361631	599.9092677384876	3578.9276096500803	385.9205819774419	588.404462069532	3650.0839639561023	389.23781060876354	-14.416730943121733	3477.900050404175	818.5191364268325	248.64127472921754	3433.4449761560754	834.2794723616862	492.89092281055457	3410.93949132502	828.8223737439687	609.4368448860943	3428.726670809977	816.7654413172902	599.3809294259086	3341.219216011237	787.387335550615	598.4674488795007	3341.7667917753765	825.6865923654407
